{
  "accessors": [
    {
      "bufferView": 2,
      "componentType": 5126,
      "count": 62945,
      "max": [
        80.88118743896484,
        30.470626831054688,
        -12.387296676635742
      ],
      "min": [
        -80.88238525390625,
        -65.5613021850586,
        -17.535839080810547
      ],
      "type": "VEC3"
    },
    {
      "bufferView": 2,
      "byteOffset": 755340,
      "componentType": 5126,
      "count": 62945,
      "max": [
        1.0,
        1.0,
        1.0
      ],
      "min": [
        -0.999999463558197,
        -1.0,
        -1.0
      ],
      "type": "VEC3"
    },
    {
      "bufferView": 1,
      "componentType": 5126,
      "count": 62945,
      "max": [
        0.999970018863678,
        0.9285449981689453
      ],
      "min": [
        3.999999989900971e-06,
        1.8000000636675395e-05
      ],
      "type": "VEC2"
    },
    {
      "bufferView": 0,
      "componentType": 5125,
      "count": 231009,
      "type": "SCALAR"
    },
    {
      "bufferView": 2,
      "byteOffset": 1510680,
      "componentType": 5126,
      "count": 65532,
      "max": [
        104.76679992675781,
        54.51472854614258,
        175.2744598388672
      ],
      "min": [
        -10.058813095092773,
        -69.66796875,
        80.89271545410156
      ],
      "type": "VEC3"
    },
    {
      "bufferView": 2,
      "byteOffset": 2297064,
      "componentType": 5126,
      "count": 65532,
      "max": [
        0.9999998807907104,
        0.9999998807907104,
        0.9999982118606567
      ],
      "min": [
        -0.9999980926513672,
        -0.9999997615814209,
        -0.9999995231628418
      ],
      "type": "VEC3"
    },
    {
      "bufferView": 1,
      "byteOffset": 503560,
      "componentType": 5126,
      "count": 65532,
      "max": [
        0.9999619722366333,
        0.9705820083618164
      ],
      "min": [
        1.700000029813964e-05,
        0.7353209853172302
      ],
      "type": "VEC2"
    },
    {
      "bufferView": 0,
      "byteOffset": 924036,
      "componentType": 5125,
      "count": 308334,
      "type": "SCALAR"
    },
    {
      "bufferView": 2,
      "byteOffset": 3083448,
      "componentType": 5126,
      "count": 65532,
      "max": [
        106.89171600341797,
        54.952125549316406,
        171.24713134765625
      ],
      "min": [
        -11.454379081726074,
        -95.41227722167969,
        -24.24667739868164
      ],
      "type": "VEC3"
    },
    {
      "bufferView": 2,
      "byteOffset": 3869832,
      "componentType": 5126,
      "count": 65532,
      "max": [
        0.9999996423721313,
        1.0,
        0.9999985098838806
      ],
      "min": [
        -0.9999987483024597,
        -1.0,
        -0.9999996423721313
      ],
      "type": "VEC3"
    },
    {
      "bufferView": 1,
      "byteOffset": 1027816,
      "componentType": 5126,
      "count": 65532,
      "max": [
        0.9999989867210388,
        0.7647039890289307
      ],
      "min": [
        9.000000318337698e-06,
        0.5294240117073059
      ],
      "type": "VEC2"
    },
    {
      "bufferView": 0,
      "byteOffset": 2157372,
      "componentType": 5125,
      "count": 315744,
      "type": "SCALAR"
    },
    {
      "bufferView": 2,
      "byteOffset": 4656216,
      "componentType": 5126,
      "count": 65532,
      "max": [
        69.51110076904297,
        55.71889114379883,
        165.48048400878906
      ],
      "min": [
        -105.1589126586914,
        -94.42108917236328,
        -24.445940017700195
      ],
      "type": "VEC3"
    },
    {
      "bufferView": 2,
      "byteOffset": 5442600,
      "componentType": 5126,
      "count": 65532,
      "max": [
        0.9999998807907104,
        1.0,
        0.9999914765357971
      ],
      "min": [
        -0.9999997615814209,
        -0.9999998807907104,
        -0.9999997615814209
      ],
      "type": "VEC3"
    },
    {
      "bufferView": 1,
      "byteOffset": 1552072,
      "componentType": 5126,
      "count": 65532,
      "max": [
        0.9999979734420776,
        0.5587990283966064
      ],
      "min": [
        4.199999966658652e-05,
        0.029412999749183655
      ],
      "type": "VEC2"
    },
    {
      "bufferView": 0,
      "byteOffset": 3420348,
      "componentType": 5125,
      "count": 312489,
      "type": "SCALAR"
    },
    {
      "bufferView": 2,
      "byteOffset": 6228984,
      "componentType": 5126,
      "count": 65532,
      "max": [
        -3.2346110343933105,
        55.63178253173828,
        170.66639709472656
      ],
      "min": [
        -105.96611785888672,
        -13.553908348083496,
        -24.097200393676758
      ],
      "type": "VEC3"
    },
    {
      "bufferView": 2,
      "byteOffset": 7015368,
      "componentType": 5126,
      "count": 65532,
      "max": [
        0.9999986290931702,
        1.0,
        0.9999998807907104
      ],
      "min": [
        -0.9999998807907104,
        -0.9999998807907104,
        -0.9999991059303284
      ],
      "type": "VEC3"
    },
    {
      "bufferView": 1,
      "byteOffset": 2076328,
      "componentType": 5126,
      "count": 65532,
      "max": [
        0.9999309778213501,
        0.3529370129108429
      ],
      "min": [
        3.999999989900971e-06,
        3.999999989900971e-06
      ],
      "type": "VEC2"
    },
    {
      "bufferView": 0,
      "byteOffset": 4670304,
      "componentType": 5125,
      "count": 317649,
      "type": "SCALAR"
    },
    {
      "bufferView": 2,
      "byteOffset": 7801752,
      "componentType": 5126,
      "count": 44524,
      "max": [
        -1.5501879453659058,
        35.634307861328125,
        170.85464477539063
      ],
      "min": [
        -106.11778259277344,
        -70.3966293334961,
        80.31140899658203
      ],
      "type": "VEC3"
    },
    {
      "bufferView": 2,
      "byteOffset": 8336040,
      "componentType": 5126,
      "count": 44524,
      "max": [
        0.9999986290931702,
        0.9999939799308777,
        0.9999983310699463
      ],
      "min": [
        -0.9999995231628418,
        -0.999999463558197,
        -0.9999997615814209
      ],
      "type": "VEC3"
    },
    {
      "bufferView": 1,
      "byteOffset": 2600584,
      "componentType": 5126,
      "count": 44524,
      "max": [
        0.9998459815979004,
        0.4999980032444
      ],
      "min": [
        7.000000096013537e-06,
        0.32354700565338135
      ],
      "type": "VEC2"
    },
    {
      "bufferView": 0,
      "byteOffset": 5940900,
      "componentType": 5125,
      "count": 215430,
      "type": "SCALAR"
    },
    {
      "bufferView": 2,
      "byteOffset": 8870328,
      "componentType": 5126,
      "count": 55014,
      "max": [
        77.47991943359375,
        28.606494903564453,
        163.70652770996094
      ],
      "min": [
        -49.03228759765625,
        -63.75372314453125,
        43.19292449951172
      ],
      "type": "VEC3"
    },
    {
      "bufferView": 2,
      "byteOffset": 9530496,
      "componentType": 5126,
      "count": 55014,
      "max": [
        1.0,
        1.0,
        1.0
      ],
      "min": [
        -1.0,
        -1.0,
        -1.0
      ],
      "type": "VEC3"
    },
    {
      "bufferView": 1,
      "byteOffset": 2956776,
      "componentType": 5126,
      "count": 55014,
      "max": [
        0.9999009966850281,
        0.9999960064888
      ],
      "min": [
        6.500000017695129e-05,
        4.999999873689376e-06
      ],
      "type": "VEC2"
    },
    {
      "bufferView": 0,
      "byteOffset": 6802620,
      "componentType": 5125,
      "count": 254034,
      "type": "SCALAR"
    },
    {
      "bufferView": 2,
      "byteOffset": 10190664,
      "componentType": 5126,
      "count": 556,
      "max": [
        -38.94367980957031,
        -6.025414943695068,
        144.9957733154297
      ],
      "min": [
        -41.05259323120117,
        -14.053104400634766,
        139.7106475830078
      ],
      "type": "VEC3"
    },
    {
      "bufferView": 2,
      "byteOffset": 10197336,
      "componentType": 5126,
      "count": 556,
      "max": [
        0.9998317360877991,
        0.9997633695602417,
        0.9944073557853699
      ],
      "min": [
        -0.9999179840087891,
        -0.9986498951911926,
        -0.9951500296592712
      ],
      "type": "VEC3"
    },
    {
      "bufferView": 1,
      "byteOffset": 3396888,
      "componentType": 5126,
      "count": 556,
      "max": [
        0.9997490048408508,
        0.49965900182724
      ],
      "min": [
        5.500000042957254e-05,
        0.0003459999861661345
      ],
      "type": "VEC2"
    },
    {
      "bufferView": 0,
      "byteOffset": 7818756,
      "componentType": 5125,
      "count": 2844,
      "type": "SCALAR"
    },
    {
      "bufferView": 2,
      "byteOffset": 10204008,
      "componentType": 5126,
      "count": 1533,
      "max": [
        68.94429016113281,
        5.414186954498291,
        109.55371856689453
      ],
      "min": [
        45.63411331176758,
        -2.3853180408477783,
        94.79256439208984
      ],
      "type": "VEC3"
    },
    {
      "bufferView": 2,
      "byteOffset": 10222404,
      "componentType": 5126,
      "count": 1533,
      "max": [
        0.9988717436790466,
        0.9998566508293152,
        0.9998115301132202
      ],
      "min": [
        -0.9987417459487915,
        -0.9998892545700073,
        -0.9998907446861267
      ],
      "type": "VEC3"
    },
    {
      "bufferView": 1,
      "byteOffset": 3401336,
      "componentType": 5126,
      "count": 1533,
      "max": [
        0.9998369812965393,
        0.6664050221443176
      ],
      "min": [
        1.8000000636675395e-05,
        0.00011899999663000926
      ],
      "type": "VEC2"
    },
    {
      "bufferView": 0,
      "byteOffset": 7830132,
      "componentType": 5125,
      "count": 7764,
      "type": "SCALAR"
    }
  ],
  "asset": {
    "extras": {
      "author": "urbanmasque (https://sketchfab.com/urbanmasque)",
      "license": "CC-BY-4.0 (http://creativecommons.org/licenses/by/4.0/)",
      "source": "https://sketchfab.com/3d-models/jail-cell-44e5ba48b9364ac9818a331760450f4b",
      "title": "Jail Cell"
    },
    "generator": "Sketchfab-12.68.0",
    "version": "2.0"
  },
  "bufferViews": [
    {
      "buffer": 0,
      "byteLength": 7861188,
      "name": "floatBufferViews",
      "target": 34963
    },
    {
      "buffer": 0,
      "byteLength": 3413600,
      "byteOffset": 7861188,
      "byteStride": 8,
      "name": "floatBufferViews",
      "target": 34962
    },
    {
      "buffer": 0,
      "byteLength": 10240800,
      "byteOffset": 11274788,
      "byteStride": 12,
      "name": "floatBufferViews",
      "target": 34962
    }
  ],
  "buffers": [
    {
      "byteLength": 21515588,
      "uri": "scene.bin"
    }
  ],
  "images": [
    {
      "uri": "textures/Layer_1_mtl_baseColor.png"
    },
    {
      "uri": "textures/Layer_2_mtl_baseColor.png"
    },
    {
      "uri": "textures/Layer_3_mtl_baseColor.png"
    },
    {
      "uri": "textures/Layer_4_mtl_baseColor.png"
    },
    {
      "uri": "textures/Layer_5_mtl_baseColor.png"
    }
  ],
  "materials": [
    {
      "doubleSided": true,
      "name": "Layer_1_mtl",
      "pbrMetallicRoughness": {
        "baseColorFactor": [
          0.2578125,
          0.2578125,
          0.2578125,
          1.0
        ],
        "baseColorTexture": {
          "index": 0
        },
        "metallicFactor": 0.0,
        "roughnessFactor": 0.6
      }
    },
    {
      "doubleSided": true,
      "name": "Layer_2_mtl",
      "pbrMetallicRoughness": {
        "baseColorFactor": [
          0.4468368902,
          0.4468368902,
          0.4468368902,
          1.0
        ],
        "baseColorTexture": {
          "index": 1
        },
        "metallicFactor": 0.0,
        "roughnessFactor": 0.6
      }
    },
    {
      "doubleSided": true,
      "name": "Layer_3_mtl",
      "pbrMetallicRoughness": {
        "baseColorFactor": [
          0.2273246951,
          0.2273246951,
          0.2273246951,
          1.0
        ],
        "baseColorTexture": {
          "index": 2
        },
        "metallicFactor": 0.0,
        "roughnessFactor": 0.6
      }
    },
    {
      "doubleSided": true,
      "name": "Layer_4_mtl",
      "pbrMetallicRoughness": {
        "baseColorFactor": [
          0.1724466463,
          0.1724466463,
          0.1724466463,
          1.0
        ],
        "baseColorTexture": {
          "index": 3
        },
        "metallicFactor": 0.0,
        "roughnessFactor": 0.6
      }
    },
    {
      "doubleSided": true,
      "name": "Layer_5_mtl",
      "pbrMetallicRoughness": {
        "baseColorFactor": [
          0.1602515244,
          0.1602515244,
          0.1602515244,
          1.0
        ],
        "baseColorTexture": {
          "index": 4
        },
        "metallicFactor": 0.0,
        "roughnessFactor": 0.6
      }
    }
  ],
  "meshes": [
    {
      "name": "Object_0",
      "primitives": [
        {
          "attributes": {
            "NORMAL": 1,
            "POSITION": 0,
            "TEXCOORD_0": 2
          },
          "indices": 3,
          "material": 0,
          "mode": 4
        }
      ]
    },
    {
      "name": "Object_1",
      "primitives": [
        {
          "attributes": {
            "NORMAL": 5,
            "POSITION": 4,
            "TEXCOORD_0": 6
          },
          "indices": 7,
          "material": 1,
          "mode": 4
        }
      ]
    },
    {
      "name": "Object_2",
      "primitives": [
        {
          "attributes": {
            "NORMAL": 9,
            "POSITION": 8,
            "TEXCOORD_0": 10
          },
          "indices": 11,
          "material": 1,
          "mode": 4
        }
      ]
    },
    {
      "name": "Object_3",
      "primitives": [
        {
          "attributes": {
            "NORMAL": 13,
            "POSITION": 12,
            "TEXCOORD_0": 14
          },
          "indices": 15,
          "material": 1,
          "mode": 4
        }
      ]
    },
    {
      "name": "Object_4",
      "primitives": [
        {
          "attributes": {
            "NORMAL": 17,
            "POSITION": 16,
            "TEXCOORD_0": 18
          },
          "indices": 19,
          "material": 1,
          "mode": 4
        }
      ]
    },
    {
      "name": "Object_5",
      "primitives": [
        {
          "attributes": {
            "NORMAL": 21,
            "POSITION": 20,
            "TEXCOORD_0": 22
          },
          "indices": 23,
          "material": 1,
          "mode": 4
        }
      ]
    },
    {
      "name": "Object_6",
      "primitives": [
        {
          "attributes": {
            "NORMAL": 25,
            "POSITION": 24,
            "TEXCOORD_0": 26
          },
          "indices": 27,
          "material": 2,
          "mode": 4
        }
      ]
    },
    {
      "name": "Object_7",
      "primitives": [
        {
          "attributes": {
            "NORMAL": 29,
            "POSITION": 28,
            "TEXCOORD_0": 30
          },
          "indices": 31,
          "material": 3,
          "mode": 4
        }
      ]
    },
    {
      "name": "Object_8",
      "primitives": [
        {
          "attributes": {
            "NORMAL": 33,
            "POSITION": 32,
            "TEXCOORD_0": 34
          },
          "indices": 35,
          "material": 4,
          "mode": 4
        }
      ]
    }
  ],
  "nodes": [
    {
      "children": [
        1
      ],
      "matrix": [
        -0.022441385313868523,
        0.0,
        0.0,
        0.0,
        0.0,
        -0.022441385313868523,
        -4.982988535988336e-18,
        0.0,
        0.0,
        -4.982988535988336e-18,
        0.022441385313868523,
        0.0,
        0.7733840942382813,
        55.56728363037111,
        -55.56728363037108,
        1.0
      ],
      "name": "Sketchfab_model"
    },
    {
      "children": [
        2,
        3,
        4,
        5,
        6,
        7,
        8,
        9,
        10
      ],
      "name": "jail.obj.cleaner.materialmerger.gles"
    },
    {
      "mesh": 0,
      "name": "Object_2"
    },
    {
      "mesh": 1,
      "name": "Object_3"
    },
    {
      "mesh": 2,
      "name": "Object_4"
    },
    {
      "mesh": 3,
      "name": "Object_5"
    },
    {
      "mesh": 4,
      "name": "Object_6"
    },
    {
      "mesh": 5,
      "name": "Object_7"
    },
    {
      "mesh": 6,
      "name": "Object_8"
    },
    {
      "mesh": 7,
      "name": "Object_9"
    },
    {
      "mesh": 8,
      "name": "Object_10"
    }
  ],
  "samplers": [
    {
      "magFilter": 9729,
      "minFilter": 9987,
      "wrapS": 10497,
      "wrapT": 10497
    }
  ],
  "scene": 0,
  "scenes": [
    {
      "name": "Sketchfab_Scene",
      "nodes": [
        0
      ]
    }
  ],
  "textures": [
    {
      "sampler": 0,
      "source": 0
    },
    {
      "sampler": 0,
      "source": 1
    },
    {
      "sampler": 0,
      "source": 2
    },
    {
      "sampler": 0,
      "source": 3
    },
    {
      "sampler": 0,
      "source": 4
    }
  ]
}
